<svg width="28" height="28" viewBox="0 0 28 28" xmlns="http://www.w3.org/2000/svg"><title>telegram</title><g fill="#2C2B29" fill-rule="evenodd"><path d="M0 0h28v28H0V0zm8.996 15.368l1.485 4.907c.196.54.1.756.666.756.437 0 .63-.2.874-.438l2.1-2.05 4.365 3.24c.803.445 1.383.215 1.583-.75l2.866-13.56c.294-1.18-.448-1.717-1.217-1.366l-16.83 6.516c-1.15.462-1.142 1.106-.21 1.392l4.32 1.354z"/><path d="M10 14.732l8.996-5.698c.472-.287.905-.133.55.184l-8.103 7.34-.165 2.485L10 14.733z" fill-rule="nonzero"/></g></svg>