<svg width="28" height="28" viewBox="0 0 28 28" xmlns="http://www.w3.org/2000/svg"><title>vk</title><path d="M0 0h28v28H0V0zm13.759 21.142h1.415s.428-.047.647-.282c.2-.216.194-.622.194-.622s-.028-1.9.854-2.18c.87-.275 1.985 1.836 3.168 2.648.895.615 1.575.48 1.575.48l3.163-.044s1.655-.102.87-1.403c-.064-.106-.457-.962-2.352-2.721-1.984-1.841-1.718-1.543.672-4.728C25.42 10.35 26 9.167 25.819 8.66c-.173-.483-1.243-.356-1.243-.356l-3.562.022s-.264-.036-.46.081c-.191.115-.314.382-.314.382s-.564 1.501-1.315 2.778c-1.586 2.692-2.22 2.835-2.48 2.668-.603-.39-.452-1.566-.452-2.401 0-2.61.396-3.699-.771-3.98-.387-.094-.672-.155-1.662-.166-1.271-.012-2.347.004-2.956.303-.405.198-.718.64-.527.666.235.031.768.144 1.05.528.366.497.353 1.612.353 1.612s.21 3.072-.49 3.454c-.48.261-1.138-.273-2.552-2.716C7.713 10.283 7.166 8.9 7.166 8.9s-.105-.259-.293-.397a1.471 1.471 0 0 0-.547-.22l-3.385.021s-.508.014-.694.235c-.167.197-.014.603-.014.603s2.65 6.2 5.65 9.324c2.752 2.864 5.876 2.676 5.876 2.676z" fill="#2C2B29" fill-rule="evenodd"/></svg>