<svg width="28" height="28" viewBox="0 0 28 28" xmlns="http://www.w3.org/2000/svg"><title>ok</title><path d="M0 0h28v28H0V0zm19.784 15.125c-.28-.53-1.05-.968-2.077-.205-1.386 1.033-3.61 1.033-3.61 1.033s-2.226 0-3.612-1.033c-1.025-.763-1.797-.324-2.075.205-.485.92.063 1.367 1.301 2.118 1.059.642 2.512.883 3.449.972l-.781.74-2.909 2.749a1.031 1.031 0 0 0 0 1.514l.134.125c.22.208.51.313.8.313.289 0 .577-.105.8-.313l2.907-2.749c1.104 1.042 2.167 2.05 2.907 2.749a1.177 1.177 0 0 0 1.6 0l.133-.125a1.03 1.03 0 0 0 0-1.514l-2.907-2.749-.786-.743c.94-.091 2.378-.333 3.425-.969.927-.563 1.468-.954 1.477-1.503v-.01c0-.18-.056-.378-.176-.605zm-5.681-9.897h-.013c-2.722.004-4.927 2.09-4.927 4.663 0 2.577 2.21 4.663 4.934 4.663 2.725 0 4.934-2.087 4.934-4.663 0-2.572-2.205-4.66-4.928-4.663zm-.006 2.37c1.34 0 2.429 1.027 2.429 2.293 0 1.268-1.09 2.295-2.43 2.295S11.67 11.16 11.67 9.891c0-1.266 1.086-2.293 2.428-2.293z" fill="#2C2B29" fill-rule="evenodd"/></svg>