<svg width="28" height="28" viewBox="0 0 28 28" xmlns="http://www.w3.org/2000/svg"><title>twitter</title><path d="M0 0h28v28H0V0zm24.404 8.348a7.757 7.757 0 0 1-2.256.635 4.026 4.026 0 0 0 1.728-2.232 7.773 7.773 0 0 1-2.498.98 3.882 3.882 0 0 0-2.87-1.274c-2.17 0-3.932 1.804-3.932 4.031 0 .318.034.624.101.92-3.269-.169-6.165-1.774-8.105-4.213a4.072 4.072 0 0 0-.533 2.026c0 1.4.693 2.634 1.749 3.357a3.842 3.842 0 0 1-1.782-.505v.05c0 1.954 1.355 3.584 3.154 3.954a3.867 3.867 0 0 1-1.776.069c.502 1.602 1.953 2.768 3.674 2.8a7.76 7.76 0 0 1-5.82 1.67 10.917 10.917 0 0 0 6.025 1.811c7.236 0 11.19-6.145 11.19-11.471 0-.175-.003-.35-.011-.523a8.044 8.044 0 0 0 1.962-2.085z" fill="#2C2B29" fill-rule="evenodd"/></svg>