<svg width="28" height="28" viewBox="0 0 28 28" xmlns="http://www.w3.org/2000/svg"><title>yandex</title><path d="M0 0h28v28H0V0zm15.086 6c-2.61 0-4.824 1.981-4.824 5.827 0 2.307 1.072 4.009 2.983 4.848L9.68 23.107c-.116.21 0 .373.187.373h1.655c.139 0 .232-.047.279-.163l3.24-6.316h1.165v6.316c0 .07.07.163.164.163h1.444c.14 0 .187-.07.187-.186V6.234C18 6.07 17.907 6 17.744 6h-2.658zm.154 9.551c-1.538 0-3.03-1.118-3.03-3.915 0-2.913 1.399-4.101 2.82-4.101h1.19v8.016h-.98z" fill="#2C2B29" fill-rule="evenodd"/></svg>