<svg width="28" height="28" viewBox="0 0 28 28" xmlns="http://www.w3.org/2000/svg"><title>instagram</title><path d="M0 0h28v28H0V0zm8.112 5.967c-1.175 0-2.082 1.209-2.082 2.087v12.84c0 .879.857 2.122 2.082 2.122H20.05c.878 0 1.95-.965 1.95-2.122V8.054c0-.878-1.072-2.087-1.95-2.087H8.112zM20 9.667c0 .2-.133.333-.333.333h-1.334c-.2 0-.333-.133-.333-.333V8.333c0-.2.133-.333.333-.333h1.334c.2 0 .333.133.333.333v1.334zM8.026 20.038v-6.394h1.278c-.08.24-.08.559-.08.798a4.805 4.805 0 0 0 4.79 4.791 4.805 4.805 0 0 0 4.792-4.79c0-.24 0-.56-.08-.8H20V20c.043.278-.462 1.04-1 1 0 0-9.2-.036-10 0-.729-.036-.974-.546-.974-.962zm5.989-8.79a3.203 3.203 0 0 1 3.194 3.194 3.203 3.203 0 0 1-3.194 3.194 3.203 3.203 0 0 1-3.194-3.194 3.203 3.203 0 0 1 3.194-3.194z" fill="#2C2B29" fill-rule="evenodd"/></svg>